# xmcd CD database file
#
# Track frame offsets:
#	150
#	14380
#	29608
#	45188
#	57242
#	75764
#	88212
#	100963
#	115140
#	130897
#	143172
#	164446
#
# Disc length: 2384 seconds
#
# Revision: 0
# Processed by: cddbd v1.5.2PL0 Copyright (c) Steve Scherf et al.
# Submitted via: CDex 1.70beta2
#
DISCID=93094e0c
DTITLE=Zacharis, Abe - Cdn. - Songs of the Sage and Saddle
DYEAR=1900
DGENRE=Country
TTITLE0=Old Red
TTITLE1=End of A Long Lonely Day
TTITLE2=Prairie Homestead
TTITLE3=Over the Next Hill
TTITLE4=Rider On the Rim
TTITLE5=Pairie Lullaby
TTITLE6=Cross the Brazos
TTITLE7=Teh Meaning of Love
TTITLE8=Give My Love To Rose
TTITLE9=Seven Spanish Angles
TTITLE10=Empty Saddles and Old Corrals
TTITLE11=Family Bible
EXTD=
EXTT0=
EXTT1=
EXTT2=
EXTT3=
EXTT4=
EXTT5=
EXTT6=
EXTT7=
EXTT8=
EXTT9=
EXTT10=
EXTT11=
PLAYORDER=
